<svg width="41" height="19" viewBox="0 0 41 19" fill="none" xmlns="http://www.w3.org/2000/svg">
<path d="M26.4455 14.4603L22.1786 9.5L26.443 4.53974C27.4324 3.57511 28.6883 2.9212 30.0527 2.66021C31.4171 2.39923 32.8291 2.54282 34.1111 3.07294C35.3932 3.60306 36.4881 4.49603 37.2581 5.63959C38.0282 6.78315 38.4391 8.12625 38.4391 9.5C38.4391 10.8738 38.0282 12.2168 37.2581 13.3604C36.4881 14.504 35.3932 15.3969 34.1111 15.9271C32.8291 16.4572 31.4171 16.6008 30.0527 16.3398C28.6883 16.0788 27.4324 15.4249 26.443 14.4603L26.4455 14.4603ZM20.5 11.4557L24.5594 16.1804L24.5952 16.2184C25.9393 17.5467 27.6517 18.4513 29.5159 18.8176C31.38 19.184 33.3122 18.9957 35.068 18.2766C36.8239 17.5575 38.3247 16.3399 39.3806 14.7777C40.4364 13.2154 41 11.3788 41 9.5C41 7.62119 40.4364 5.78456 39.3806 4.22235C38.3247 2.66014 36.8239 1.44249 35.068 0.72339C33.3122 0.00428323 31.38 -0.183993 29.5159 0.182363C27.6517 0.548718 25.9393 1.45326 24.5952 2.7816L24.5594 2.8196L20.5 7.54427L16.4406 2.8196L16.4048 2.7816C15.0607 1.45325 13.3483 0.548717 11.4841 0.182361C9.62002 -0.183995 7.68785 0.00428099 5.93196 0.723388C4.17607 1.44249 2.67531 2.66013 1.61944 4.22234C0.563569 5.78456 9.94767e-07 7.62118 8.30516e-07 9.5C6.66265e-07 11.3788 0.563569 13.2154 1.61944 14.7777C2.67531 16.3399 4.17607 17.5575 5.93196 18.2766C7.68785 18.9957 9.62001 19.184 11.4841 18.8176C13.3483 18.4513 15.0607 17.5467 16.4048 16.2184L16.4406 16.1804L20.5 11.4557ZM18.8189 9.5L14.557 14.4603C13.5676 15.4249 12.3117 16.0788 10.9473 16.3398C9.58294 16.6008 8.17095 16.4572 6.88889 15.9271C5.60684 15.3969 4.51194 14.504 3.74188 13.3604C2.97181 12.2168 2.56095 10.8738 2.56095 9.5C2.56095 8.12624 2.97181 6.78315 3.74188 5.63959C4.51195 4.49603 5.60684 3.60305 6.88889 3.07294C8.17095 2.54282 9.58294 2.39923 10.9473 2.66021C12.3117 2.9212 13.5676 3.57511 14.557 4.53973L18.8189 9.5Z" fill="#111827"/>
</svg>
