<svg width="532" height="596" viewBox="0 0 532 596" fill="none" xmlns="http://www.w3.org/2000/svg">
<g clip-path="url(#clip0_124_124)">
<path d="M473.444 109.817C466.05 124.457 457.742 138.183 448.725 151.338C446.519 150.889 445.942 149.375 445.178 148.193C435.1 132.611 425.506 116.79 418.02 99.7154C408.827 78.7501 419.868 61.032 434.249 54.5044C453.447 45.7909 476.749 57.3856 480.698 78.0839C482.024 85.0323 481.273 92.1284 478.362 98.7839C476.789 102.38 475.171 105.956 473.444 109.817ZM454.646 71.1342C453.747 70.8381 452.861 70.4921 451.948 70.2537C442.999 67.9194 434.702 73.2744 432.574 82.7406C430.836 90.4745 437.118 99.1158 445.486 100.5C452.943 101.734 459.908 97.5211 462.78 90.039C465.395 83.2301 462.468 76.0271 454.646 71.1342Z" fill="#E5E7EB"/>
<path d="M58.3957 464.216C61.19 469.039 64.1838 473.387 67.9726 477.11C69.7339 478.841 69.654 480.182 67.9726 481.891C66.2809 483.611 64.9869 483.227 63.5748 481.64C62.1471 480.036 60.6479 478.496 58.7341 476.451C56.1165 479.548 53.6142 482.469 51.1586 485.429C49.7028 487.183 48.3583 488.219 46.15 486.241C43.9508 484.271 44.7958 482.911 46.4011 481.205C48.4386 479.04 50.2643 476.676 52.1968 474.411C53.898 472.417 54.9406 470.805 53.648 467.645C52.2353 464.192 55.4557 463.763 58.3957 464.216Z" fill="#E5E7EB"/>
<path d="M355.958 245.552C354.277 246.382 352.816 247.196 351.257 247.481C347.689 248.136 345.578 250.137 344.412 253.527C343.861 255.129 343.582 257.575 340.682 256.542C338.248 255.676 337.158 254.169 338.464 251.332C335.887 251.016 334.706 249.707 334.853 247.283C334.993 244.981 336.75 244.913 338.321 244.696C341.055 244.319 342.069 242.678 342.555 240.096C342.926 238.121 342.459 235.142 346.224 235.517C350.112 235.904 349.028 238.676 348.897 241.387C352.482 240.758 356.428 239.617 355.958 245.552Z" fill="#E5E7EB"/>
<path d="M38.7484 498.689C35.3676 501.85 32.1877 504.799 29.013 507.754C27.4468 509.213 26.0561 510.546 23.9834 508.164C22.1123 506.013 22.8539 504.716 24.639 503.129C27.9795 500.159 31.1897 497.041 34.4355 493.965C36.0061 492.477 37.2915 490.581 39.8022 492.89C42.516 495.386 40.6132 496.834 38.7484 498.689Z" fill="#E5E7EB"/>
<path d="M274.048 207.701C274.732 206.185 275.291 204.959 275.887 203.751C276.772 201.959 277.974 201.405 279.753 202.701C281.228 203.776 282.619 204.613 281.252 206.881C278.902 210.781 277.937 215.133 278.192 219.678C278.338 222.266 277.207 223.373 274.738 223.564C271.861 223.786 271.759 221.676 271.679 219.832C271.502 215.735 272.55 211.824 274.048 207.701Z" fill="#E5E7EB"/>
<path d="M247.685 295.565C250.436 295.67 251.321 297.042 251.23 299.289C251.137 301.599 249.326 301.738 247.769 301.801C242.663 302.007 237.55 302.038 232.44 302.148C230.485 302.19 229.404 301.35 229.378 299.304C229.352 297.225 230.125 296.021 232.416 295.98C237.39 295.891 242.362 295.693 247.685 295.565Z" fill="#E5E7EB"/>
<path d="M97.8117 327.336C100.5 326.893 101.021 328.935 101.647 330.415C102.334 332.039 100.663 332.772 99.6101 333.493C95.6928 336.18 91.992 339.134 88.4967 342.338C86.794 343.898 85.4425 344.111 83.7023 342.263C81.7976 340.239 82.6921 338.985 84.3527 337.597C88.6108 334.037 92.8354 330.437 97.8117 327.336Z" fill="#E5E7EB"/>
<path d="M119.747 486.156C116.653 489.092 113.238 490.991 109.686 492.684C108.1 493.439 106.813 493.414 106.105 491.521C105.528 489.979 104.727 488.256 106.783 487.306C111.686 485.04 115.644 481.751 118.878 477.414C120.249 475.575 121.822 477.315 123.154 478.016C124.576 478.764 124.421 479.99 123.626 481.111C122.455 482.761 121.183 484.339 119.747 486.156Z" fill="#E5E7EB"/>
<path d="M111.456 440.055C111.979 444.766 110.97 445.776 107.063 445.039C102.902 444.253 98.7233 444.168 94.6488 445.439C92.1034 446.234 90.9567 445.322 90.2631 442.896C89.5297 440.332 91.1768 439.754 92.9229 439.34C99.0479 437.89 105.173 437.34 111.456 440.055Z" fill="#E5E7EB"/>
<path d="M318.263 277.4C322.558 272.585 326.884 267.998 331.342 263.543C332.854 262.032 334.039 263.621 335.173 264.476C336.486 265.467 336.631 266.556 335.544 267.925C331.985 272.407 327.778 276.225 323.389 279.843C320.487 282.236 319.427 279.809 318.263 277.4Z" fill="#E5E7EB"/>
<path d="M294.533 246.854C293.403 248.6 292.216 248.327 290.879 247.616C285.798 244.915 281.448 241.358 278.003 236.734C276.994 235.379 276.095 233.97 278.029 232.59C279.734 231.374 281.297 230.745 282.842 232.923C285.628 236.849 289.303 239.813 293.545 242.012C295.841 243.202 295.904 244.677 294.533 246.854Z" fill="#E5E7EB"/>
<path d="M96.66 492.928C96.4519 495.082 95.1963 495.269 93.7133 495.214C87.9818 495.001 82.4769 493.881 77.2867 491.345C75.4686 490.457 74.4241 489.492 75.5317 487.271C76.6158 485.098 77.9996 484.637 80.0845 485.763C84.2177 487.995 88.7038 488.86 93.3437 489.021C95.7155 489.103 96.7854 490.278 96.66 492.928Z" fill="#E5E7EB"/>
<path d="M13.011 513.009C15.8584 511.534 16.572 513.852 17.5078 515.295C18.5462 516.896 17.0003 517.738 15.9685 518.518C11.98 521.531 7.95637 524.498 3.92169 527.449C2.19407 528.713 0.714877 529.06 -0.809543 526.844C-2.34902 524.606 -1.41773 523.57 0.377143 522.301C4.57042 519.338 8.65744 516.224 13.011 513.009Z" fill="#E5E7EB"/>
<path d="M76.7458 447.231C78.5173 445.84 79.9245 444.585 81.6889 446.968C83.2766 449.112 82.8823 450.531 80.8352 452.015C76.9825 454.807 73.5407 458.074 70.5238 461.756C68.912 463.723 67.4339 463.44 65.718 461.925C63.8494 460.276 64.581 458.981 65.9591 457.494C69.277 453.914 72.6059 450.357 76.7458 447.231Z" fill="#E5E7EB"/>
<path d="M296.024 186.193C298.31 185.224 300.359 184.623 302.529 184.404C304.227 184.233 305.446 184.606 305.768 186.517C306.071 188.316 305.794 189.724 303.734 190.231C298.721 191.465 294.055 193.444 289.9 196.579C287.813 198.154 286.74 196.37 285.635 195.055C284.271 193.431 285.323 192.404 286.611 191.423C289.412 189.287 292.42 187.533 296.024 186.193Z" fill="#E5E7EB"/>
<path d="M48.6772 391.643C50.5295 386.226 52.488 381.2 54.8406 376.33C55.7336 374.481 56.5485 372.986 59.0816 374.193C61.5829 375.385 61.4779 376.823 60.4412 379.062C58.4593 383.341 56.8078 387.772 55.0015 392.134C54.4972 393.351 54.1897 395.017 52.4233 394.735C50.803 394.476 48.7313 394.453 48.6772 391.643Z" fill="#E5E7EB"/>
<path d="M123.6 468.155C122.048 467.467 122.293 466.352 122.307 465.268C122.364 460.863 121.708 456.597 119.056 452.945C117.352 450.598 117.977 449.009 120.204 447.633C122.839 446.004 123.454 448.393 124.435 449.832C127.442 454.243 128.118 459.351 128.504 464.488C128.748 467.737 127.436 469.444 123.6 468.155Z" fill="#E5E7EB"/>
<path d="M146.462 311.118C144.596 311.678 142.978 312.006 141.51 312.665C138.987 313.796 137.855 312.767 136.973 310.446C136.003 307.896 137.653 307.286 139.379 306.764C144.167 305.314 148.972 303.913 153.8 302.599C155.568 302.117 157.357 301.967 157.894 304.486C158.372 306.722 157.769 308.062 155.361 308.612C152.467 309.273 149.636 310.214 146.462 311.118Z" fill="#E5E7EB"/>
<path d="M75.5042 355.606C73.0741 358.872 70.7789 361.88 68.6222 364.985C67.3737 366.782 66.1992 367.681 63.9884 366.274C61.7609 364.857 61.9449 363.441 63.3396 361.631C66.3065 357.781 69.2103 353.882 72.1775 350.032C73.4642 348.363 74.6464 346.869 77.072 348.896C79.6208 351.025 78.4263 352.51 76.788 354.188C76.4106 354.574 76.06 354.987 75.5042 355.606Z" fill="#E5E7EB"/>
<path d="M281.843 294.311C282.696 296.761 281.994 297.821 279.719 298.319C274.45 299.473 269.162 300.419 263.782 300.854C262.056 300.994 260.843 300.614 260.721 298.614C260.619 296.966 260.361 295.186 262.619 294.82C268.199 293.918 273.79 293.083 279.385 292.272C280.632 292.091 281.422 292.775 281.843 294.311Z" fill="#E5E7EB"/>
<path d="M118.326 315.387C120.425 314.395 122.256 313.547 124.067 312.657C126.277 311.57 127.509 312.367 128.413 314.541C129.364 316.826 128.228 317.602 126.396 318.457C122.009 320.502 117.69 322.698 113.39 324.922C111.39 325.956 109.94 325.928 108.728 323.72C107.441 321.375 108.526 320.309 110.497 319.363C113.043 318.141 115.534 316.802 118.326 315.387Z" fill="#E5E7EB"/>
<path d="M45.956 448.542C45.2367 444.773 44.5763 441.333 43.9462 437.887C43.579 435.879 44.4983 434.825 46.4788 434.575C48.378 434.334 49.4024 434.886 49.8193 437.014C50.803 442.034 51.9705 447.027 53.317 451.963C53.9451 454.265 53.0442 455.199 51.1211 455.872C48.8433 456.669 47.8817 455.53 47.3651 453.529C46.9611 451.965 46.4764 450.421 45.956 448.542Z" fill="#E5E7EB"/>
<path d="M368.584 241.146C365.566 242.63 365.034 240.467 364.332 238.732C363.553 236.806 364.885 236.138 366.34 235.438C370.731 233.322 375.116 231.186 379.427 228.914C381.421 227.864 382.805 227.702 384.088 229.978C385.435 232.37 384.294 233.456 382.369 234.404C377.871 236.617 373.375 238.832 368.584 241.146Z" fill="#E5E7EB"/>
<path d="M290.997 290.734C291.734 288.533 293.646 288.68 295.062 288.046C298.892 286.329 302.812 284.811 306.611 283.033C308.745 282.034 310.097 282.354 311.286 284.44C312.571 286.694 311.361 287.537 309.591 288.467C305.259 290.742 300.713 292.482 296.148 294.203C292.972 295.401 291.151 294.667 290.997 290.734Z" fill="#E5E7EB"/>
<path d="M341.381 216.759C340.315 214.37 339.455 212.222 338.329 210.223C337.116 208.069 337.69 206.787 339.755 205.658C342.008 204.426 342.96 205.732 343.868 207.405C346.409 212.083 348.054 217.08 349.059 222.286C349.414 224.126 349.301 225.837 346.842 226.247C344.49 226.639 343.319 225.771 342.96 223.373C342.642 221.243 341.98 219.166 341.381 216.759Z" fill="#E5E7EB"/>
<path d="M325.125 195.494C322.421 193.6 319.689 192.419 316.865 191.458C314.564 190.675 314.722 189.135 315.228 187.233C315.84 184.934 317.298 185.051 318.991 185.657C324.268 187.546 329.072 190.26 333.273 193.996C334.55 195.132 335.672 196.246 333.978 198.019C332.486 199.581 331.151 200.477 329.219 198.632C328.053 197.518 326.66 196.641 325.125 195.494Z" fill="#E5E7EB"/>
<path d="M172.867 299.001C177.216 298.375 181.233 297.889 185.224 297.241C187.487 296.873 188.498 297.775 188.78 299.936C189.064 302.104 188.182 303.303 186.036 303.563C181.08 304.164 176.12 304.73 171.165 305.346C169.016 305.613 167.501 305.27 167.183 302.646C166.852 299.922 168.387 299.396 170.506 299.259C171.18 299.215 171.852 299.137 172.867 299.001Z" fill="#E5E7EB"/>
<path d="M409.929 212.496C411.291 214.356 410.026 215.141 408.957 215.973C404.922 219.115 400.878 222.246 396.838 225.383C395.146 226.697 393.683 227.226 392.14 224.969C390.665 222.811 391.468 221.684 393.264 220.37C397.067 217.59 400.84 214.753 404.436 211.714C406.611 209.876 408.191 210.05 409.929 212.496Z" fill="#E5E7EB"/>
<path d="M415.818 201.303C419.241 197.455 422.548 193.894 425.651 190.163C427.125 188.39 428.342 187.217 430.611 188.992C433.067 190.914 431.663 192.572 430.343 194.102C427.172 197.776 423.899 201.363 420.624 204.946C419.618 206.046 418.465 207.298 416.894 205.808C415.695 204.671 413.811 203.605 415.818 201.303Z" fill="#E5E7EB"/>
<path d="M313.289 247.183C316.384 247.182 319.097 247.246 321.804 247.144C324.071 247.059 325.43 247.782 325.542 250.269C325.652 252.718 324.167 253.262 322.197 253.294C317.054 253.378 311.914 253.644 306.783 252.862C304.444 252.506 303.439 251.566 303.911 249.102C304.397 246.566 305.867 246.216 308.073 246.666C309.652 246.988 311.291 247.017 313.289 247.183Z" fill="#E5E7EB"/>
<path d="M446.688 162.44C448.85 163.394 449.224 164.704 448.212 166.461C445.525 171.128 442.845 175.799 440.152 180.463C439.137 182.22 437.867 182.465 436.148 181.301C434.377 180.101 433.944 178.909 435.149 176.945C437.754 172.699 440.18 168.343 442.631 164.005C443.503 162.463 444.4 161.207 446.688 162.44Z" fill="#E5E7EB"/>
<path d="M49.1649 423.513C47.7882 425.763 45.8912 425.383 44.3382 424.723C42.8093 424.074 43.5558 422.332 43.5077 421.047C43.3192 416.008 44.0582 411.059 44.9512 406.115C45.3598 403.854 46.5557 403.18 48.6771 403.644C50.8119 404.111 51.6084 405.225 50.9758 407.451C49.5162 412.585 49.8133 417.929 49.1649 423.513Z" fill="#E5E7EB"/>
<path d="M208.164 302.22C205.601 302.226 203.44 302.203 201.28 302.243C199.359 302.278 198.252 301.594 198.157 299.471C198.056 297.23 199.032 296.192 201.202 296.17C206.467 296.116 211.732 296.084 216.997 296.023C219.091 295.999 219.806 297.102 219.81 299.071C219.813 301.002 219.216 302.186 217.072 302.173C214.237 302.156 211.401 302.2 208.164 302.22Z" fill="#E5E7EB"/>
</g>
<defs>
<clipPath id="clip0_124_124">
<rect width="532" height="596" fill="white"/>
</clipPath>
</defs>
</svg>
