<svg width="12" height="197" viewBox="0 0 12 197" fill="none" xmlns="http://www.w3.org/2000/svg">
<path d="M6 0.666667C3.05448 0.666666 0.666667 3.05448 0.666667 6C0.666666 8.94552 3.05448 11.3333 6 11.3333C8.94552 11.3333 11.3333 8.94552 11.3333 6C11.3333 3.05448 8.94552 0.666667 6 0.666667ZM5.99999 185.667C3.05447 185.667 0.666659 188.054 0.666658 191C0.666658 193.946 3.05447 196.333 5.99999 196.333C8.94551 196.333 11.3333 193.946 11.3333 191C11.3333 188.054 8.94551 185.667 5.99999 185.667ZM6 6L5 6L4.99999 191L5.99999 191L6.99999 191L7 6L6 6Z" fill="#10B981"/>
</svg>
