<svg width="25" height="25" viewBox="0 0 25 25" fill="none" xmlns="http://www.w3.org/2000/svg">
<path d="M21.302 3.69792L21.302 7.40208L15.5 7.40208C14.1166 7.40208 12.3354 7.42708 12.3354 9.32917C12.3354 11.2583 13.8437 11.5542 15.3979 11.5542L21.302 11.5542L21.302 15.2583L9.37083 15.2583L9.37083 11.7021L11.0021 11.7021L11.0021 11.6521C9.76458 10.9271 9.02291 9.57708 9.075 8.14375C9.075 4.38959 11.5437 3.69583 14.7583 3.69583L21.3 3.69792L21.302 3.69792ZM7.73959 19.4375C7.73685 20.0065 7.50974 20.5515 7.10758 20.954C6.70542 21.3566 6.16068 21.5842 5.59168 21.5875C4.41252 21.5875 3.44169 20.6167 3.44168 19.4375C3.44168 18.2583 4.41251 17.2896 5.59168 17.2875C6.77084 17.2875 7.73959 18.2583 7.73959 19.4375ZM21.302 17.5854L21.302 21.2937L9.37083 21.2937L9.37083 17.5854L21.302 17.5854ZM2.99532e-05 1.85417L3.08844e-05 23.1563C-0.00277456 23.6393 0.185154 24.1039 0.522979 24.4491C0.860804 24.7944 1.32123 24.9923 1.80419 25L23.1958 25C23.6787 24.9923 24.1392 24.7944 24.477 24.4491C24.8148 24.1039 25.0027 23.6393 24.9999 23.1562L24.9999 1.85208C25.0039 1.36795 24.8166 0.901831 24.4787 0.555028C24.1409 0.208226 23.6798 0.00876705 23.1958 -1.01392e-06L1.80211 -7.87724e-08C1.31841 0.00876993 0.857795 0.208364 0.520629 0.555288C0.183464 0.90221 -0.00291405 1.36834 0.00211313 1.85208L2.99532e-05 1.85417Z" fill="#0A66C2"/>
</svg>
