<svg width="240" height="241" viewBox="0 0 240 241" fill="none" xmlns="http://www.w3.org/2000/svg">
<path d="M16.9124 28.8262C16.9124 29.565 16.9874 30.165 17.1299 30.6075C17.2874 31.0462 17.4899 31.5262 17.7674 32.0475C17.856 32.1852 17.9041 32.345 17.9062 32.5087C17.9062 32.7075 17.7862 32.91 17.5312 33.1088L16.2712 33.9488C16.1199 34.0579 15.94 34.1205 15.7537 34.1288C15.5512 34.1288 15.3524 34.0313 15.1537 33.8513C14.8841 33.5612 14.643 33.246 14.4337 32.91C14.2106 32.5253 14.0041 32.1312 13.8149 31.7288C12.2587 33.57 10.3049 34.4925 7.94992 34.4925C6.27367 34.4925 4.93492 34.0087 3.95992 33.0487C2.98117 32.0887 2.48242 30.8063 2.48242 29.205C2.48242 27.5025 3.08242 26.1225 4.29742 25.08C5.51617 24.0375 7.13242 23.52 9.18742 23.52C9.86242 23.52 10.5637 23.58 11.3024 23.6775C12.0412 23.7788 12.8024 23.94 13.5974 24.12V22.6575C13.5974 21.135 13.2787 20.0738 12.6599 19.455C12.0224 18.8325 10.9424 18.5325 9.40492 18.5325C8.70742 18.5325 7.99117 18.615 7.25242 18.795C6.51844 18.9697 5.79787 19.1965 5.09617 19.4738C4.86963 19.5763 4.63663 19.664 4.39867 19.7363C4.29556 19.7703 4.18837 19.7905 4.07992 19.7962C3.79867 19.7962 3.65992 19.5938 3.65992 19.1738V18.1913C3.65992 17.8725 3.69742 17.6288 3.79867 17.4938C3.94979 17.3098 4.14263 17.1645 4.36117 17.07C5.05492 16.71 5.89492 16.41 6.87367 16.17C7.84867 15.9075 8.88742 15.7913 9.98617 15.7913C12.3599 15.7913 14.0962 16.3313 15.2137 17.4113C16.3124 18.4913 16.8712 20.1337 16.8712 22.3387V28.8262H16.9087H16.9124ZM8.80867 31.8675C9.46492 31.8675 10.1437 31.7475 10.8637 31.5075C11.5799 31.2675 12.2212 30.825 12.7574 30.225C13.079 29.8566 13.3112 29.419 13.4362 28.9463C13.5562 28.4625 13.6387 27.885 13.6387 27.2025V26.3625C13.033 26.2156 12.4195 26.1029 11.8012 26.025C11.1794 25.9446 10.5531 25.9032 9.92617 25.9013C8.58742 25.9013 7.60867 26.1638 6.95242 26.7038C6.29242 27.2437 5.97742 28.005 5.97742 29.0063C5.97742 29.9438 6.21367 30.645 6.71242 31.1287C7.19242 31.6275 7.88992 31.8675 8.80867 31.8675ZM24.8324 34.0312C24.4724 34.0312 24.2324 33.9713 24.0749 33.8288C23.9137 33.7088 23.7749 33.4312 23.6549 33.0487L18.9674 17.5725C18.875 17.3131 18.8133 17.0438 18.7837 16.77C18.7837 16.4513 18.9449 16.2713 19.2637 16.2713H21.2212C21.5962 16.2713 21.8587 16.3313 21.9974 16.47C22.1587 16.59 22.2787 16.8713 22.3987 17.25L25.7512 30.5063L28.8637 17.25C28.9612 16.8525 29.0812 16.59 29.2387 16.47C29.4793 16.3226 29.7596 16.2532 30.0412 16.2713H31.6349C32.0174 16.2713 32.2724 16.3313 32.4337 16.47C32.5949 16.59 32.7337 16.8713 32.8124 17.25L35.9662 30.6675L39.4162 17.25C39.4802 16.9597 39.6184 16.6909 39.8174 16.47C40.0498 16.3227 40.3229 16.2531 40.5974 16.2713H42.4537C42.7724 16.2713 42.9524 16.4325 42.9524 16.77C42.9524 16.8713 42.9299 16.9725 42.9149 17.0925C42.8827 17.2627 42.835 17.4297 42.7724 17.5913L37.9612 33.0675C37.8412 33.4688 37.7024 33.7313 37.5449 33.8513C37.3185 33.9961 37.052 34.0657 36.7837 34.05H35.0699C34.6912 34.05 34.4324 33.99 34.2712 33.8513C34.1099 33.7088 33.9712 33.45 33.8924 33.0487L30.7987 20.1375L27.7237 33.0338C27.6262 33.435 27.5062 33.6938 27.3487 33.8325C27.1874 33.975 26.9062 34.035 26.5499 34.035H24.8324V34.0312ZM50.4749 34.5713C49.4393 34.5726 48.4072 34.4518 47.3999 34.2113C46.4024 33.9713 45.6262 33.7088 45.1049 33.4088C44.7862 33.2288 44.5687 33.03 44.4862 32.8463C44.4099 32.6698 44.3704 32.4797 44.3699 32.2875V31.2675C44.3699 30.8475 44.5274 30.645 44.8274 30.645C44.9499 30.6453 45.0715 30.6655 45.1874 30.705C45.3074 30.7462 45.4874 30.825 45.6862 30.9075C46.3612 31.2075 47.1037 31.4475 47.8799 31.6088C48.6787 31.7663 49.4549 31.8488 50.2537 31.8488C51.5137 31.8488 52.4887 31.6275 53.1674 31.1888C53.4935 30.9914 53.7614 30.7111 53.9439 30.3764C54.1263 30.0418 54.2169 29.6648 54.2062 29.2838C54.2129 29.0265 54.1687 28.7705 54.076 28.5304C53.9833 28.2903 53.844 28.071 53.6662 27.885C53.3099 27.5025 52.6312 27.1613 51.6524 26.8425L48.7574 25.9425C47.3024 25.4813 46.2224 24.7988 45.5662 23.8988C44.9237 23.0672 44.5732 22.0471 44.5687 20.9963C44.5687 20.1563 44.7487 19.4138 45.1049 18.7725C45.4649 18.135 45.9449 17.5725 46.5449 17.13C47.1449 16.6725 47.8199 16.3313 48.6187 16.0913C49.4174 15.8513 50.2537 15.75 51.1312 15.75C51.5737 15.75 52.0312 15.7688 52.4699 15.8288C52.9274 15.8888 53.3474 15.9713 53.7674 16.0538C54.1649 16.1513 54.5474 16.2488 54.9037 16.3725C55.2637 16.4925 55.5412 16.6125 55.7437 16.7325C55.9791 16.8507 56.1844 17.0214 56.3437 17.2312C56.472 17.4265 56.5339 17.658 56.5199 17.8913V18.8325C56.5199 19.2525 56.3624 19.4738 56.0624 19.4738C55.7968 19.4434 55.5396 19.3619 55.3049 19.2338C54.099 18.6991 52.7914 18.4329 51.4724 18.4538C50.3362 18.4538 49.4362 18.6338 48.8174 19.0163C48.1987 19.3913 47.8799 19.9763 47.8799 20.7975C47.8799 21.3563 48.0787 21.8363 48.4799 22.2188C48.8774 22.5975 49.6162 22.9763 50.6737 23.3175L53.5087 24.2175C54.9449 24.6788 55.9837 25.32 56.6024 26.1413C57.2212 26.9625 57.5174 27.9038 57.5174 28.9463C57.5174 29.8088 57.3412 30.585 56.9999 31.2675C56.6466 31.9523 56.1504 32.5534 55.5449 33.03C54.9262 33.5287 54.1874 33.8925 53.3287 34.1513C52.4287 34.4325 51.4912 34.5713 50.4749 34.5713Z" fill="#231F20"/>
<path fill-rule="evenodd" clip-rule="evenodd" d="M54.2437 44.2989C47.6812 49.1626 38.1412 51.7464 29.94 51.7464C18.4462 51.7464 8.08873 47.4826 0.266233 40.3951C-0.352517 39.8326 0.206233 39.0714 0.941233 39.5139C9.40498 44.4376 19.8412 47.4226 30.6412 47.4226C37.92 47.4226 45.9225 45.9001 53.2875 42.7764C54.3862 42.2776 55.3237 43.4964 54.2437 44.2989Z" fill="#FF9900"/>
<path fill-rule="evenodd" clip-rule="evenodd" d="M56.9774 41.1751C56.1412 40.0988 51.4312 40.6576 49.2974 40.9163C48.6599 40.9988 48.5587 40.4363 49.1362 40.0163C52.8862 37.3726 59.0549 38.1338 59.7712 39.0151C60.4912 39.9151 59.5724 46.1026 56.0587 49.0651C55.5224 49.5263 55.0049 49.2901 55.2412 48.6901C56.0399 46.7026 57.8174 42.2401 56.9774 41.1788V41.1751Z" fill="#FF9900"/>
<path fill-rule="evenodd" clip-rule="evenodd" d="M210 3.75C195.499 3.75 183.75 15.4875 183.75 29.9738C183.75 41.5613 191.273 51.3863 201.701 54.855C203.014 55.095 203.494 54.285 203.494 53.5913C203.494 52.9688 203.471 51.3188 203.456 49.1288C196.155 50.715 194.617 45.615 194.617 45.615C193.421 42.585 191.7 41.7788 191.7 41.7788C189.319 40.1513 191.88 40.185 191.88 40.185C194.516 40.3725 195.904 42.885 195.904 42.885C198.244 46.8975 202.046 45.735 203.542 45.0675C203.779 43.3725 204.457 42.2175 205.207 41.5613C199.38 40.9013 193.252 38.6513 193.252 28.6013C193.252 25.74 194.276 23.3963 195.952 21.5663C195.682 20.9025 194.782 18.2363 196.215 14.6288C196.215 14.6288 198.412 13.92 203.43 17.3138C205.571 16.7303 207.781 16.4328 210 16.4288C212.231 16.44 214.477 16.7288 216.574 17.3138C221.584 13.92 223.785 14.625 223.785 14.625C225.217 18.2363 224.317 20.9025 224.047 21.5625C225.727 23.4 226.747 25.74 226.747 28.6013C226.747 38.6738 220.605 40.8938 214.759 41.5388C215.7 42.3488 216.54 43.95 216.54 46.3988C216.54 49.9013 216.506 52.7288 216.506 53.5913C216.506 54.2925 216.982 55.1063 218.314 54.8513C223.535 53.1102 228.077 49.771 231.296 45.3064C234.515 40.8418 236.248 35.4778 236.25 29.9738C236.246 23.0155 233.478 16.3437 228.556 11.4259C223.633 6.50807 216.958 3.74702 210 3.75Z" fill="black"/>
<path d="M46.2824 107.293L46.8449 106.428L47.8274 107.034L48.2624 107.351C49.3124 108.174 51.5212 110.279 51.9974 113.771C52.8337 113.618 53.6774 113.542 54.5212 113.542C56.5237 113.542 57.8699 114.015 58.6349 114.408L59.0287 114.625L59.2837 114.796L59.9999 115.391L59.7524 116.154C59.3677 117.199 58.7667 118.148 57.9899 118.937C56.9024 120.077 54.9899 121.423 51.9562 121.598L51.2887 121.617H50.7337C49.3462 125.342 47.4824 129.539 44.3512 133.306C42.4932 135.545 40.2894 137.461 37.8262 138.979C34.873 140.76 31.6391 142.009 28.2674 142.67C25.8524 143.146 23.3999 143.383 20.9437 143.375C15.5062 143.375 10.7062 142.277 7.75492 140.355C5.11867 138.644 3.09367 135.849 1.73242 132.056C0.541138 128.589 -0.0439467 124.938 0.00366516 121.266C-0.00250488 120.796 0.157568 120.338 0.454817 119.977C0.752067 119.616 1.16678 119.376 1.62367 119.299L1.87866 119.28H41.4037L41.7487 119.253L42.3074 119.192C43.2674 119.063 44.7299 118.773 45.7574 118.163C44.5274 116.093 44.1787 113.672 44.7524 111.095C44.9927 110.02 45.3709 108.981 45.8774 108.006L46.2824 107.293ZM10.8374 112.051L10.9874 112.078C11.0559 112.104 11.1176 112.146 11.1677 112.2C11.2178 112.254 11.2549 112.32 11.2762 112.391L11.2987 112.543V117.557L11.2762 117.713C11.2545 117.785 11.2168 117.85 11.1661 117.904C11.1153 117.959 11.0529 118 10.9837 118.026L10.8374 118.049H5.54242C5.44373 118.047 5.34802 118.014 5.26914 117.954C5.19026 117.893 5.13231 117.809 5.10366 117.713L5.07741 117.561V112.539L5.10366 112.387C5.12482 112.315 5.16228 112.249 5.21307 112.194C5.26385 112.139 5.32654 112.097 5.39616 112.071L5.54242 112.048L10.8374 112.051ZM18.1387 112.051L18.2849 112.078C18.3541 112.104 18.4166 112.145 18.4673 112.2C18.5181 112.254 18.5557 112.319 18.5774 112.391L18.5999 112.543V117.557L18.5737 117.713C18.552 117.785 18.5143 117.85 18.4636 117.904C18.4128 117.959 18.3504 118 18.2812 118.026L18.1349 118.049H12.8399C12.7414 118.047 12.6459 118.013 12.5672 117.953C12.4884 117.893 12.4303 117.809 12.4012 117.713L12.3749 117.564V112.543C12.3741 112.441 12.4043 112.342 12.4613 112.258C12.5184 112.174 12.5995 112.11 12.6937 112.074L12.8399 112.048L18.1387 112.051ZM25.5487 112.051L25.6949 112.078C25.7634 112.104 25.8251 112.146 25.8752 112.2C25.9253 112.254 25.9624 112.32 25.9837 112.391L26.0099 112.543V117.557L25.9837 117.713C25.962 117.785 25.9243 117.85 25.8736 117.904C25.8228 117.959 25.7604 118 25.6912 118.026L25.5449 118.049H20.2499C20.1512 118.047 20.0555 118.014 19.9766 117.954C19.8978 117.893 19.8398 117.809 19.8112 117.713L19.7887 117.561V112.539L19.8112 112.387C19.8323 112.315 19.8698 112.249 19.9206 112.194C19.9713 112.139 20.034 112.097 20.1037 112.071L20.2499 112.048L25.5487 112.051ZM32.8687 112.051L33.0149 112.078C33.0841 112.104 33.1466 112.145 33.1973 112.2C33.2481 112.254 33.2857 112.319 33.3074 112.391L33.3337 112.543V117.557C33.3345 117.659 33.3043 117.759 33.2472 117.842C33.1902 117.926 33.1091 117.99 33.0149 118.026L32.8649 118.049H27.5737C27.475 118.047 27.3793 118.014 27.3004 117.954C27.2215 117.893 27.1636 117.809 27.1349 117.713L27.1124 117.561V112.539L27.1349 112.387C27.1561 112.315 27.1935 112.249 27.2443 112.194C27.2951 112.139 27.3578 112.097 27.4274 112.071L27.5774 112.048H32.8724L32.8687 112.051ZM40.2562 112.051L40.4024 112.078C40.4716 112.104 40.5341 112.145 40.5848 112.2C40.6356 112.254 40.6732 112.319 40.6949 112.391L40.7174 112.543V117.557C40.7182 117.659 40.688 117.759 40.631 117.842C40.5739 117.926 40.4928 117.99 40.3987 118.026L40.2524 118.049H34.9574C34.8587 118.047 34.763 118.014 34.6841 117.954C34.6053 117.893 34.5473 117.809 34.5187 117.713L34.4962 117.561V112.539L34.5187 112.387C34.5398 112.315 34.5773 112.249 34.6281 112.194C34.6788 112.139 34.7415 112.097 34.8112 112.071L34.9612 112.048H40.2524L40.2562 112.051ZM18.1312 104.838L18.2812 104.865C18.3493 104.891 18.4107 104.932 18.4607 104.985C18.5108 105.039 18.5481 105.103 18.5699 105.174L18.5962 105.33V110.343C18.597 110.446 18.5668 110.545 18.5097 110.629C18.4527 110.713 18.3716 110.777 18.2774 110.812L18.1312 110.839H12.8399C12.7404 110.837 12.6443 110.802 12.5654 110.74C12.4865 110.679 12.429 110.593 12.4012 110.496L12.3749 110.343V105.33C12.3749 105.229 12.4054 105.13 12.4624 105.047C12.5194 104.963 12.6001 104.9 12.6937 104.865L12.8399 104.838H18.1312ZM25.5412 104.838L25.6912 104.865C25.7593 104.891 25.8207 104.932 25.8707 104.985C25.9208 105.039 25.9581 105.103 25.9799 105.174L26.0062 105.33V110.343C26.007 110.446 25.9768 110.545 25.9197 110.629C25.8627 110.713 25.7816 110.777 25.6874 110.812L25.5412 110.839H20.2499C20.1504 110.837 20.0543 110.802 19.9754 110.74C19.8965 110.679 19.839 110.593 19.8112 110.496L19.7887 110.343V105.33L19.8112 105.178C19.8328 105.106 19.8705 105.041 19.9213 104.986C19.972 104.932 20.0345 104.891 20.1037 104.865L20.2499 104.838H25.5412ZM32.8649 104.838C33.0674 104.838 33.2399 104.979 33.3037 105.174L33.3299 105.33V110.343C33.3307 110.446 33.3005 110.545 33.2435 110.629C33.1864 110.713 33.1053 110.777 33.0112 110.812L32.8612 110.839H27.5737C27.4742 110.837 27.378 110.802 27.2991 110.74C27.2203 110.679 27.1627 110.593 27.1349 110.496L27.1124 110.343V105.33L27.1349 105.178C27.1566 105.106 27.1943 105.041 27.245 104.986C27.2958 104.932 27.3582 104.891 27.4274 104.865L27.5774 104.838H32.8724H32.8649ZM32.8649 97.625C33.0674 97.625 33.2399 97.7661 33.3037 97.9605L33.3299 98.113V103.13C33.3307 103.232 33.3005 103.332 33.2435 103.416C33.1864 103.5 33.1053 103.564 33.0112 103.599L32.8612 103.622H27.5737C27.475 103.621 27.3793 103.587 27.3004 103.527C27.2215 103.467 27.1636 103.383 27.1349 103.287L27.1124 103.134V98.113L27.1349 97.9605C27.1566 97.8889 27.1943 97.8235 27.245 97.7692C27.2958 97.715 27.3582 97.6734 27.4274 97.6479L27.5737 97.625H32.8687H32.8649Z" fill="#2396ED"/>
<path d="M137.926 43.9036C137.592 43.5258 137.438 42.8276 137.268 42.0821C137.101 41.34 136.91 40.5406 136.305 40.0245V40.0211C136.085 39.8281 135.832 39.6752 135.56 39.5691C136.402 37.0562 136.071 34.5533 135.226 32.2933C134.183 29.5172 132.368 27.0987 130.981 25.4458C129.43 23.4692 127.913 21.5937 127.94 18.8244C127.987 14.5945 128.401 6.75194 121.028 6.74182C120.727 6.74182 120.417 6.75531 120.092 6.7823C111.85 7.45018 114.036 16.2372 113.913 19.1786C113.762 21.3306 113.331 23.0239 111.864 25.1288C110.143 27.1965 107.72 30.5393 106.57 34.0237C106.028 35.6664 105.768 37.3429 106.008 38.9283C105.931 38.9957 105.861 39.0666 105.794 39.1408C105.29 39.6838 104.915 40.345 104.498 40.7902C104.11 41.1815 103.555 41.3299 102.947 41.5492C102.335 41.7718 101.667 42.0956 101.262 42.8816V42.8849C101.083 43.2383 100.995 43.6315 101.005 44.0284C101.005 44.3927 101.059 44.7604 101.112 45.1146C101.226 45.8567 101.339 46.5549 101.189 47.0271C100.708 48.3595 100.644 49.277 100.985 49.9449C101.326 50.6162 102.021 50.9096 102.813 51.0749C104.394 51.4122 106.536 51.3279 108.224 52.2285C110.029 53.1831 111.864 53.5204 113.324 53.1865C113.835 53.0853 114.315 52.8639 114.725 52.5404C115.135 52.2169 115.463 51.8003 115.684 51.3245C116.827 51.3178 118.08 50.832 120.089 50.7174C121.453 50.6094 123.157 51.2065 125.112 51.0985C125.163 51.3128 125.239 51.5201 125.34 51.7158L125.343 51.7192C126.102 53.254 127.515 53.9522 129.019 53.8341C130.523 53.7127 132.121 52.8188 133.414 51.2638C134.651 49.7526 136.696 49.1286 138.053 48.3022C138.732 47.8873 139.283 47.3712 139.323 46.619C139.367 45.8702 138.929 45.0303 137.926 43.9036Z" fill="#202020"/>
<path d="M138.705 46.5853C138.682 47.0474 138.347 47.3948 137.736 47.7659C136.506 48.5147 134.33 49.1624 132.943 50.8624C131.733 52.3129 130.263 53.1056 128.966 53.2101C127.673 53.3113 126.556 52.7716 125.894 51.4359V51.4291C125.483 50.6432 125.654 49.4052 125.998 48.0998C126.342 46.7944 126.837 45.4519 126.904 44.3624C126.971 42.9626 127.051 41.7415 127.285 40.8004C127.519 39.8559 127.883 39.2217 128.531 38.8608C128.561 38.8446 128.591 38.8288 128.622 38.8136C128.695 40.0246 129.29 41.2591 130.34 41.5256C131.486 41.8292 133.14 40.8375 133.839 40.0246L134.247 40.0111C134.862 39.9942 135.373 40.0313 135.901 40.4934C136.305 40.8375 136.499 41.4952 136.666 42.2238C136.833 42.9558 136.967 43.7519 137.465 44.3186C138.424 45.398 138.735 46.1198 138.705 46.5853ZM115.38 50.009V50.0191C115.266 51.4865 114.444 52.2859 113.187 52.576C111.927 52.8661 110.22 52.576 108.515 51.6787C106.627 50.6668 104.381 50.768 102.944 50.4644C102.222 50.3126 101.751 50.0832 101.537 49.6616C101.323 49.2366 101.316 48.4979 101.774 47.2329V47.2296L101.777 47.2228C102.005 46.5178 101.837 45.7454 101.727 45.0202C101.617 44.2983 101.563 43.6372 101.807 43.1784L101.811 43.1751C102.125 42.5645 102.586 42.3453 103.158 42.1395C103.726 41.9304 104.404 41.7685 104.939 41.2288L104.942 41.2254C105.437 40.6958 105.815 40.0347 106.249 39.5658C106.617 39.1711 106.984 38.908 107.536 38.9047H107.553C107.657 38.9056 107.761 38.9147 107.863 38.9317C108.599 39.043 109.237 39.5624 109.855 40.4057L111.637 43.681V43.6844C112.111 44.6829 113.111 45.7825 113.96 46.9024C114.808 48.0256 115.464 49.1489 115.38 50.009Z" fill="#F8BF11"/>
<path d="M124.263 19.4653C124.12 19.1819 123.829 18.9121 123.328 18.7063C122.292 18.2577 121.844 18.2273 121.265 17.8495C120.33 17.239 119.551 17.0265 118.906 17.0265C118.596 17.028 118.289 17.0816 117.997 17.185C117.208 17.4549 116.687 18.0283 116.359 18.3386C116.292 18.4027 116.212 18.4567 116.012 18.6085C115.811 18.7535 115.51 18.9795 115.076 19.3101C114.685 19.6002 114.561 19.9847 114.695 20.43C114.828 20.8752 115.253 21.3913 116.032 21.8366C116.516 22.1233 116.85 22.5112 117.231 22.8182C117.423 22.9787 117.635 23.1115 117.863 23.2128C118.104 23.3174 118.385 23.3882 118.732 23.4085C119.561 23.4591 120.169 23.2061 120.704 22.8991C121.239 22.5888 121.693 22.211 122.215 22.039C123.284 21.7017 124.05 21.0237 124.29 20.376C124.351 20.2312 124.38 20.0749 124.375 19.9177C124.371 19.7605 124.333 19.6062 124.263 19.4653Z" fill="#D6A312"/>
<path d="M121.55 21.0574C120.697 21.506 119.705 22.0491 118.645 22.0491C117.589 22.0491 116.754 21.5566 116.155 21.0743C115.854 20.8381 115.61 20.5953 115.427 20.4232C115.106 20.1703 115.146 19.8127 115.276 19.8228C115.497 19.8498 115.53 20.1433 115.667 20.2748C115.854 20.4502 116.088 20.6796 116.373 20.9056C116.941 21.361 117.699 21.8029 118.645 21.8029C119.594 21.8029 120.697 21.2429 121.372 20.8584C121.757 20.6425 122.241 20.2546 122.639 19.9611C122.94 19.7351 122.93 19.4653 123.181 19.4956C123.431 19.526 123.247 19.7958 122.896 20.1028C122.546 20.4131 121.994 20.8247 121.55 21.0574Z" fill="#202020"/>
<path d="M134.581 39.387C134.465 39.3835 134.349 39.3835 134.233 39.387H134.2C134.494 38.4527 133.845 37.7679 132.124 36.982C130.339 36.1893 128.916 36.2669 128.675 37.8759C128.658 37.9602 128.645 38.0445 128.638 38.1322C128.5 38.1817 128.366 38.2427 128.237 38.3144C127.395 38.7765 126.937 39.6164 126.683 40.6486C126.429 41.6774 126.356 42.9221 126.285 44.3253C126.242 45.0269 125.955 45.9781 125.664 46.9901C122.739 49.0949 118.679 50.0056 115.229 47.631C114.996 47.2599 114.728 46.8889 114.451 46.5246C114.275 46.2924 114.096 46.0619 113.916 45.8331C114.223 45.8414 114.528 45.7839 114.812 45.6644C114.953 45.6045 115.081 45.5162 115.188 45.4048C115.295 45.2935 115.378 45.1615 115.433 45.0168C115.644 44.4433 115.433 43.6405 114.758 42.723C114.086 41.8022 112.947 40.7666 111.272 39.7277C110.042 38.9519 109.354 38.0074 109.033 36.982C108.709 35.9532 108.752 34.84 109 33.7438C109.478 31.6356 110.704 29.5847 111.483 28.2995C111.693 28.1444 111.56 28.5896 110.694 30.2121C109.919 31.6963 108.465 35.12 110.453 37.7949C110.507 35.8925 110.955 33.9495 111.713 32.1382C112.813 29.6184 115.116 25.2536 115.296 21.7725C115.393 21.84 115.714 22.0626 115.861 22.1436C116.282 22.3966 116.6 22.7642 117.011 23.0982C117.547 23.5548 118.231 23.7951 118.933 23.7728C119.735 23.7728 120.36 23.5063 120.878 23.2061C121.446 22.8823 121.894 22.518 122.325 22.3797C123.227 22.093 123.949 21.587 124.357 20.9967C125.059 23.7964 126.696 27.834 127.746 29.804C128.304 30.8496 129.417 33.0725 129.895 35.7474C130.199 35.7407 130.533 35.7811 130.894 35.8756C132.148 32.5935 129.828 29.0551 128.769 28.0702C128.341 27.6519 128.317 27.463 128.535 27.4731C129.681 28.4986 131.192 30.5663 131.743 32.8971C131.994 33.9597 132.044 35.0762 131.777 36.1792C131.91 36.2365 132.044 36.2939 132.178 36.3613C134.193 37.3496 134.938 38.2098 134.581 39.387Z" fill="white"/>
<path d="M120.219 30.5089C118.361 30.5157 116.546 31.3556 115.012 32.9241C113.475 34.4892 112.292 36.7087 111.61 39.2925L111.814 39.4207V39.4342C113.385 40.4394 114.504 41.4514 115.196 42.3958C115.928 43.3943 116.252 44.3657 115.941 45.209C115.777 45.635 115.453 45.9782 115.039 46.1636L114.902 46.2142C115.149 46.5414 115.39 46.8787 115.614 47.2262C118.769 49.3445 122.439 48.5619 125.196 46.646C125.463 45.7082 125.707 44.838 125.741 44.2915C125.811 42.8917 125.881 41.62 126.155 40.5136C126.429 39.4005 126.964 38.3885 127.973 37.832C128.03 37.7982 128.087 37.7814 128.144 37.7544C128.161 37.6472 128.186 37.5413 128.217 37.4373C127.408 35.3392 126.242 33.592 124.842 32.3776C123.438 31.1633 121.844 30.519 120.223 30.5089H120.219ZM128.14 37.778L128.134 37.7949V37.7881L128.137 37.7746L128.14 37.778Z" fill="#E6E6E6"/>
<path d="M124.357 16.2439C124.371 17.0421 124.118 17.8219 123.638 18.4567C123.398 18.3485 123.156 18.2472 122.91 18.1531L122.485 18.0013C122.582 17.8832 122.769 17.7483 122.843 17.5729C122.949 17.3126 123.006 17.0346 123.01 16.7532L123.013 16.7195C123.022 16.4492 122.982 16.1796 122.896 15.9234C122.829 15.6895 122.705 15.4761 122.535 15.3028C122.468 15.2307 122.388 15.1728 122.298 15.1323C122.209 15.0918 122.112 15.0695 122.014 15.0667H121.991C121.804 15.0693 121.624 15.1413 121.486 15.2691C121.304 15.4285 121.163 15.6314 121.078 15.8594C120.973 16.1198 120.916 16.3977 120.911 16.679V16.7128C120.906 16.8708 120.916 17.0289 120.941 17.185C120.562 17.0084 120.166 16.8727 119.758 16.7802C119.739 16.6314 119.728 16.4816 119.725 16.3316V16.2877C119.711 15.7693 119.811 15.2543 120.019 14.7799C120.196 14.3432 120.484 13.9615 120.854 13.6736C121.182 13.4066 121.59 13.2603 122.011 13.2587H122.031C122.449 13.2587 122.806 13.3801 123.174 13.65C123.552 13.9296 123.849 14.3072 124.033 14.7428C124.243 15.2083 124.347 15.6637 124.357 16.2034L124.36 16.2439H124.357ZM118.04 16.7971C117.713 16.8916 117.401 17.0336 117.114 17.2187C117.137 17.051 117.139 16.8811 117.121 16.7128V16.6858C117.101 16.4629 117.047 16.2445 116.961 16.0381C116.892 15.8565 116.782 15.6937 116.64 15.5625C116.588 15.5108 116.525 15.4706 116.457 15.4444C116.388 15.4183 116.315 15.4068 116.242 15.4107C116.102 15.4242 115.985 15.4917 115.875 15.63C115.757 15.7847 115.677 15.9648 115.641 16.1562C115.588 16.3827 115.574 16.6163 115.597 16.8477V16.8747C115.616 17.0988 115.67 17.3185 115.758 17.5257C115.838 17.7331 115.971 17.9148 116.145 18.0519L115.804 18.3217L115.544 18.5106C115.312 18.2808 115.13 18.0052 115.009 17.7011C114.832 17.2963 114.735 16.8915 114.708 16.4159V16.4125C114.677 15.9684 114.728 15.5224 114.858 15.097C114.958 14.726 115.15 14.387 115.417 14.1121C115.528 13.9876 115.664 13.888 115.816 13.8194C115.968 13.7509 116.133 13.715 116.299 13.714C116.58 13.714 116.827 13.8085 117.084 14.0176C117.378 14.2613 117.607 14.5757 117.749 14.9317C117.927 15.3365 118.017 15.7413 118.047 16.2203C118.057 16.4227 118.057 16.6116 118.04 16.7971Z" fill="white"/>
<path d="M119.437 17.9373C119.471 18.052 119.654 18.0351 119.761 18.0891C119.852 18.1363 119.928 18.2409 120.029 18.2442C120.129 18.2476 120.283 18.2105 120.296 18.1093C120.313 17.9811 120.122 17.8968 120.002 17.8496C119.845 17.7855 119.644 17.7551 119.497 17.8394C119.464 17.8563 119.427 17.8968 119.437 17.9373ZM118.361 17.9373C118.328 18.052 118.144 18.0351 118.04 18.0891C117.947 18.1363 117.873 18.2409 117.769 18.2442C117.669 18.2476 117.515 18.2105 117.502 18.1093C117.485 17.9811 117.676 17.8968 117.796 17.8496C117.953 17.7855 118.157 17.7551 118.304 17.8394C118.338 17.8563 118.371 17.8968 118.361 17.9373Z" fill="#202020"/>
<g clip-path="url(#clip0_124_31)">
<path fill-rule="evenodd" clip-rule="evenodd" d="M111.844 190.509L128.156 199.974V218.919L111.844 209.446V190.509ZM129.941 199.974V218.919L146.25 209.446V190.509L129.941 199.974ZM93.75 179.934V198.871L110.059 208.347V189.406L93.75 179.934ZM111.844 230.461L128.152 239.934V220.992L111.844 211.52V230.461Z" fill="#7B42BC"/>
</g>
<path d="M198.479 239.783C198.376 239.783 198.265 239.757 198.187 239.653L194.876 235.298V239.74H194.121V234.271C194.121 234.053 194.301 233.879 194.507 233.879C194.627 233.879 194.73 233.914 194.807 234.018L198.11 238.364V233.94H198.865V239.4C198.865 239.627 198.685 239.783 198.479 239.783Z" fill="#231F20"/>
<path d="M204.725 239.836C203.97 239.836 203.181 239.679 202.443 239.4L202.623 238.773C203.301 238.991 204.039 239.148 204.725 239.148C205.677 239.148 206.175 238.808 206.175 238.329C206.175 237.894 205.788 237.676 204.459 237.049C203.129 236.422 202.606 236.021 202.606 235.237C202.606 234.253 203.361 233.853 204.785 233.853C205.377 233.853 206.286 233.975 206.81 234.131L206.689 234.776C206.114 234.636 205.394 234.541 204.802 234.541C203.799 234.541 203.387 234.732 203.387 235.211C203.387 235.682 203.687 235.882 205.094 236.535C206.578 237.223 206.955 237.572 206.955 238.286C206.955 239.322 205.977 239.836 204.725 239.836Z" fill="#231F20"/>
<path d="M210.533 233.94H211.314V239.74H210.533V233.94Z" fill="#231F20"/>
<path d="M217.954 237.11H216.015V239.078H217.954C218.614 239.078 219.017 238.66 219.017 238.077C219.017 237.528 218.597 237.11 217.954 237.11ZM217.576 234.602H216.015V236.457H217.576C218.202 236.457 218.657 236.056 218.657 235.499C218.657 234.95 218.262 234.602 217.576 234.602ZM217.962 239.74H215.629C215.406 239.74 215.234 239.566 215.234 239.348V234.332C215.234 234.123 215.406 233.94 215.629 233.94H217.559C218.743 233.94 219.446 234.523 219.446 235.438C219.446 235.934 219.155 236.396 218.708 236.666C219.369 236.866 219.815 237.415 219.815 238.077C219.815 239 219.052 239.74 217.962 239.74Z" fill="#231F20"/>
<path d="M223.564 239.74C223.35 239.74 223.178 239.557 223.178 239.348V233.94H223.959V239.035H227.064V239.74H223.564Z" fill="#231F20"/>
<path d="M232.386 239.836C230.79 239.836 229.829 239.244 229.829 238.051C229.829 237.484 230.147 236.944 230.765 236.692C230.267 236.378 230.01 235.934 230.01 235.446C230.01 234.367 230.842 233.853 232.403 233.853C232.927 233.853 233.664 233.914 234.282 234.053L234.196 234.697C233.544 234.593 232.935 234.532 232.343 234.532C231.331 234.532 230.79 234.811 230.79 235.481C230.79 236.013 231.288 236.431 231.949 236.431H233.287C233.475 236.431 233.621 236.579 233.621 236.762C233.621 236.953 233.475 237.101 233.287 237.101H231.846C231.09 237.101 230.61 237.476 230.61 238.051C230.61 238.895 231.391 239.148 232.369 239.148C232.901 239.148 233.621 239.078 234.204 238.939L234.316 239.575C233.758 239.731 233.029 239.836 232.386 239.836Z" fill="#231F20"/>
<path d="M188.312 235.028L189.679 238.453L187.614 236.802L188.312 235.028ZM190.741 239.242L188.638 234.104C188.578 233.956 188.458 233.878 188.312 233.878C188.166 233.878 188.037 233.956 187.977 234.104L185.669 239.74H186.459L187.372 237.417L190.099 239.653C190.209 239.743 190.288 239.783 190.391 239.783C190.597 239.783 190.777 239.627 190.777 239.4C190.777 239.364 190.764 239.305 190.741 239.242Z" fill="#231F20"/>
<path d="M234.358 204.356C234.358 217.776 223.48 228.654 210.059 228.654C196.64 228.654 185.761 217.776 185.761 204.356C185.761 190.937 196.64 180.057 210.059 180.057C223.48 180.057 234.358 190.937 234.358 204.356Z" fill="black"/>
<path d="M210.468 194.901L216.756 210.42L207.259 202.939L210.468 194.901ZM221.639 213.995L211.967 190.719C211.691 190.047 211.139 189.692 210.468 189.692C209.797 189.692 209.205 190.047 208.929 190.719L198.313 216.25H201.944L206.147 205.723L218.688 215.855C219.192 216.263 219.556 216.447 220.029 216.447C220.976 216.447 221.804 215.737 221.804 214.712C221.804 214.545 221.746 214.28 221.639 213.995Z" fill="white"/>
<path fill-rule="evenodd" clip-rule="evenodd" d="M24.4057 184.75C20.2862 184.75 16.9467 187.983 16.9467 191.972V196.972H29.8566V198.361H11.209C7.08951 198.361 3.75 201.595 3.75 205.583V216.417C3.75 220.405 7.08951 223.639 11.209 223.639H15.5123V217.528C15.5123 213.539 18.8518 210.306 22.9714 210.306H36.7417C40.2276 210.306 43.0532 207.57 43.0532 204.195V191.972C43.0532 187.983 39.7138 184.75 35.5942 184.75H24.4057ZM22.6845 193.639C24.1104 193.639 25.2664 192.52 25.2664 191.139C25.2664 189.758 24.1104 188.639 22.6845 188.639C21.2584 188.639 20.1024 189.758 20.1024 191.139C20.1024 192.52 21.2584 193.639 22.6845 193.639Z" fill="url(#paint0_linear_124_31)"/>
<path fill-rule="evenodd" clip-rule="evenodd" d="M35.594 237.25C39.7136 237.25 43.0531 234.017 43.0531 230.028V225.028H30.1432V223.639H48.7908C52.9104 223.639 56.2497 220.405 56.2497 216.417V205.583C56.2497 201.595 52.9104 198.361 48.7908 198.361H44.4875V204.472C44.4875 208.461 41.1479 211.695 37.0286 211.695H23.258C19.7722 211.695 16.9465 214.431 16.9465 217.806V230.028C16.9465 234.017 20.2861 237.25 24.4055 237.25H35.594ZM37.3154 228.361C35.8893 228.361 34.7334 229.48 34.7334 230.861C34.7334 232.242 35.8893 233.361 37.3154 233.361C38.7414 233.361 39.8973 232.242 39.8973 230.861C39.8973 229.48 38.7414 228.361 37.3154 228.361Z" fill="url(#paint1_linear_124_31)"/>
<path d="M195.549 147.151C196.433 148.287 197.775 148.913 199.158 148.913H220.838C222.221 148.913 223.563 148.238 224.451 147.139L237.902 130.061C238.786 128.925 239.091 127.474 238.786 126.063L233.976 104.78C233.829 104.097 233.527 103.457 233.094 102.907C232.66 102.357 232.106 101.911 231.474 101.604L212.011 92.1617C211.391 91.8485 210.704 91.686 210.008 91.6875C209.315 91.6875 208.625 91.8428 208.006 92.1576L188.538 101.641C187.907 101.949 187.354 102.395 186.921 102.945C186.489 103.495 186.188 104.135 186.041 104.817L181.231 126.104C180.884 127.514 181.231 128.966 182.114 130.102L195.549 147.147V147.151Z" fill="#326DE6"/>
<path fill-rule="evenodd" clip-rule="evenodd" d="M229.574 124.911C229.979 124.919 230.384 124.952 230.784 125.009L231.024 125.062L231.152 125.095C231.326 125.118 231.493 125.176 231.644 125.267C231.794 125.357 231.923 125.477 232.024 125.62C232.125 125.762 232.195 125.924 232.23 126.095C232.264 126.265 232.263 126.441 232.225 126.611C232.186 126.782 232.112 126.943 232.006 127.083C231.901 127.224 231.767 127.341 231.612 127.427C231.458 127.513 231.288 127.566 231.112 127.582C230.935 127.599 230.758 127.578 230.59 127.523H230.574L230.561 127.519L230.549 127.51C230.508 127.502 230.466 127.494 230.425 127.486L230.219 127.445C229.833 127.322 229.456 127.177 229.087 127.012C228.376 126.728 227.639 126.513 226.887 126.37C226.626 126.363 226.372 126.456 226.181 126.632C226.001 126.598 225.82 126.566 225.64 126.538C224.416 130.334 221.823 133.553 218.357 135.579C218.418 135.751 218.489 135.918 218.567 136.082C218.439 136.305 218.405 136.569 218.472 136.818C218.778 137.512 219.153 138.175 219.591 138.796C219.839 139.115 220.062 139.45 220.268 139.793L220.384 140.026L220.433 140.128C220.571 140.355 220.633 140.618 220.61 140.881C220.588 141.144 220.481 141.394 220.307 141.593C220.132 141.793 219.898 141.933 219.638 141.993C219.378 142.053 219.106 142.03 218.86 141.927C218.697 141.86 218.549 141.76 218.427 141.633C218.304 141.507 218.21 141.356 218.15 141.191L218.109 141.109C218.069 141.031 218.03 140.952 217.993 140.872C217.849 140.498 217.726 140.116 217.626 139.728C217.406 139.004 217.116 138.303 216.759 137.635C216.603 137.427 216.372 137.288 216.115 137.247L215.991 137.03L215.846 136.769C212.089 138.173 207.941 138.163 204.191 136.74L203.902 137.251C203.698 137.282 203.508 137.373 203.357 137.512C202.926 138.21 202.596 138.964 202.378 139.752C202.28 140.141 202.158 140.523 202.015 140.897C201.982 140.966 201.948 141.034 201.912 141.101L201.858 141.212C201.798 141.377 201.704 141.532 201.582 141.659C201.46 141.786 201.312 141.886 201.148 141.953C200.984 142.02 200.808 142.051 200.631 142.046C200.453 142.041 200.279 141.999 200.12 141.923C199.88 141.809 199.683 141.625 199.554 141.395C199.426 141.164 199.374 140.9 199.405 140.639C199.427 140.466 199.484 140.299 199.575 140.149L199.633 140.026L199.74 139.814C199.946 139.466 200.169 139.135 200.417 138.816C200.863 138.179 201.243 137.5 201.561 136.789C201.594 136.547 201.553 136.301 201.445 136.082L201.676 135.538C198.222 133.527 195.632 130.334 194.393 126.562L193.84 126.656C193.626 126.506 193.375 126.418 193.113 126.403C192.361 126.544 191.624 126.758 190.913 127.04C190.541 127.204 190.165 127.347 189.781 127.469C189.713 127.486 189.644 127.501 189.575 127.514L189.451 127.543H189.439L189.43 127.551H189.41C189.2 127.618 188.977 127.629 188.762 127.585C188.547 127.541 188.347 127.442 188.182 127.298C188.016 127.154 187.892 126.971 187.82 126.765C187.748 126.559 187.731 126.339 187.77 126.125C187.821 125.867 187.953 125.631 188.146 125.452C188.339 125.272 188.585 125.157 188.848 125.123L188.869 125.119H188.877L188.902 125.111C189.001 125.086 189.125 125.054 189.216 125.037C189.616 124.984 190.021 124.952 190.425 124.943C191.193 124.89 191.953 124.768 192.692 124.575C192.911 124.437 193.096 124.251 193.233 124.032L193.761 123.881C193.188 119.944 194.108 115.937 196.342 112.632L195.937 112.276C195.922 112.017 195.833 111.768 195.681 111.557C195.099 111.063 194.47 110.626 193.803 110.253C193.442 110.071 193.092 109.869 192.754 109.648L192.556 109.493L192.494 109.439L192.477 109.427C192.19 109.224 191.995 108.917 191.936 108.572C191.877 108.227 191.959 107.873 192.164 107.588C192.285 107.442 192.44 107.326 192.615 107.25C192.79 107.174 192.98 107.14 193.171 107.15C193.492 107.164 193.8 107.279 194.05 107.477L194.141 107.547C194.207 107.6 194.282 107.653 194.331 107.698C194.628 107.972 194.905 108.266 195.165 108.569C195.681 109.129 196.251 109.64 196.866 110.089C197.097 110.212 197.366 110.237 197.618 110.163L198.072 110.482C200.836 107.579 204.591 105.796 208.608 105.479L208.642 104.951C208.837 104.779 208.979 104.555 209.05 104.306C209.078 103.549 209.031 102.792 208.91 102.045C208.829 101.654 208.771 101.258 208.736 100.86V100.525V100.504C208.719 100.33 208.738 100.153 208.793 99.9866C208.849 99.8199 208.939 99.6666 209.058 99.5367C209.177 99.4068 209.323 99.3031 209.485 99.2325C209.647 99.1619 209.823 99.1258 210 99.1267C210.177 99.1271 210.352 99.164 210.513 99.235C210.675 99.3061 210.82 99.4097 210.939 99.5394C211.058 99.669 211.148 99.8218 211.204 99.9879C211.26 100.154 211.28 100.33 211.263 100.504V100.86C211.23 101.258 211.174 101.654 211.094 102.045C210.972 102.792 210.923 103.549 210.95 104.306C210.999 104.559 211.147 104.784 211.362 104.931V104.96L211.391 105.487C215.384 105.847 219.112 107.621 221.878 110.486L222.357 110.151C222.616 110.195 222.882 110.167 223.125 110.069C223.74 109.619 224.31 109.104 224.826 108.544C225.086 108.238 225.363 107.948 225.66 107.674L225.871 107.51L225.941 107.453C226.067 107.329 226.219 107.233 226.385 107.17C226.551 107.108 226.729 107.081 226.907 107.091C227.084 107.102 227.258 107.149 227.416 107.23C227.574 107.31 227.713 107.423 227.824 107.561C227.935 107.699 228.015 107.858 228.06 108.028C228.105 108.199 228.113 108.376 228.084 108.55C228.055 108.724 227.989 108.89 227.891 109.036C227.793 109.183 227.664 109.308 227.514 109.403L227.415 109.484C227.353 109.534 227.291 109.587 227.238 109.623C226.9 109.845 226.55 110.047 226.189 110.228C225.521 110.603 224.892 111.041 224.31 111.536C224.141 111.731 224.055 111.983 224.071 112.239L223.864 112.419L223.625 112.636C225.863 115.93 226.804 119.924 226.255 123.856L226.763 124.003C226.891 124.228 227.081 124.416 227.312 124.543C228.051 124.739 228.811 124.862 229.574 124.911ZM207.073 109.018C207.514 108.92 207.964 108.843 208.419 108.79L208.047 115.33L208.014 115.346C208.008 115.495 207.971 115.641 207.906 115.775C207.841 115.909 207.75 116.029 207.636 116.127C207.523 116.225 207.391 116.299 207.248 116.344C207.105 116.39 206.954 116.406 206.804 116.392C206.603 116.375 206.411 116.305 206.247 116.188L206.239 116.192L200.805 112.391C202.535 110.715 204.707 109.546 207.073 109.018ZM213.753 116.172L219.153 112.395C217.097 110.406 214.439 109.139 211.585 108.79L211.957 115.321H211.965C211.971 115.47 212.008 115.617 212.073 115.751C212.138 115.886 212.231 116.006 212.344 116.104C212.458 116.202 212.591 116.276 212.734 116.321C212.878 116.367 213.029 116.382 213.179 116.368C213.38 116.351 213.573 116.28 213.736 116.163L213.753 116.172ZM223.034 122.941L216.643 121.117L216.635 121.093C216.49 121.053 216.355 120.985 216.237 120.892C216.12 120.799 216.022 120.684 215.951 120.553C215.88 120.422 215.836 120.278 215.822 120.13C215.808 119.982 215.825 119.833 215.871 119.691C215.934 119.501 216.048 119.331 216.201 119.2L216.193 119.196L221.127 114.835C222.638 117.263 223.303 120.108 223.026 122.941H223.034ZM214.525 126.431L217.077 132.522C219.516 130.985 221.369 128.686 222.341 125.99L215.764 124.89L215.755 124.903C215.523 124.858 215.282 124.891 215.07 124.997C214.814 125.121 214.615 125.337 214.515 125.602C214.415 125.866 214.422 126.159 214.533 126.419L214.525 126.431ZM212.935 134.218C210.57 134.749 208.105 134.627 205.805 133.858L209.013 128.136C209.108 127.961 209.254 127.814 209.426 127.712C209.599 127.61 209.796 127.555 209.997 127.555C210.198 127.555 210.395 127.608 210.568 127.709C210.741 127.811 210.882 127.957 210.978 128.132H211.003L214.22 133.862C213.798 134.002 213.369 134.12 212.935 134.218ZM202.952 132.493L205.475 126.468L205.458 126.443C205.539 126.26 205.567 126.059 205.54 125.861C205.514 125.663 205.433 125.476 205.307 125.321C205.18 125.165 205.013 125.046 204.824 124.978C204.635 124.909 204.43 124.893 204.232 124.931L204.22 124.919L197.7 126.01C198.682 128.685 200.528 130.964 202.952 132.493ZM198.836 114.835L203.794 119.213L203.79 119.241C203.941 119.372 204.054 119.541 204.116 119.73C204.178 119.919 204.187 120.121 204.142 120.315C204.097 120.509 204 120.687 203.861 120.83C203.722 120.974 203.546 121.077 203.353 121.13L203.348 121.15L196.99 122.961C196.674 120.124 197.323 117.265 198.836 114.835ZM211.016 119.552H208.984L207.717 121.105L208.171 123.051L210 123.922L211.825 123.055L212.279 121.109L211.016 119.552Z" fill="white"/>
<path d="M128.674 110.094L135.75 104.469L134.505 102.916C131.68 100.453 128.279 98.7436 124.617 97.9458C120.955 97.148 117.151 97.2878 113.558 98.3524C109.978 99.4337 106.731 101.406 104.122 104.085C101.513 106.763 99.6268 110.061 98.64 113.667C98.5275 114.091 99.81 113.3 100.376 113.457L110.156 111.852C110.156 111.852 110.633 111.387 110.91 111.084C115.26 106.336 122.633 105.714 127.654 109.756L128.674 110.094Z" fill="#EA4335"/>
<path d="M141.139 113.559C140.012 109.439 137.705 105.74 134.501 102.916L127.639 109.741C129.066 110.899 130.21 112.366 130.985 114.032C131.76 115.698 132.146 117.519 132.112 119.356V120.567C135.487 120.567 138.225 123.286 138.225 126.642C138.225 129.991 135.487 132.714 132.112 132.714L119.899 132.702L118.68 132.834V142.235L119.899 142.434H132.112C135.516 142.467 138.841 141.405 141.596 139.406C144.351 137.406 146.39 134.573 147.412 131.326C148.422 128.084 148.356 124.602 147.225 121.4C146.094 118.198 143.957 115.447 141.135 113.559H141.139Z" fill="#4285F4"/>
<path d="M107.666 142.43H119.887V132.702H107.662C106.792 132.702 105.934 132.455 105.142 132.099L103.425 132.624L98.5012 137.487L98.0737 139.164C100.831 141.264 104.197 142.409 107.662 142.426L107.666 142.43Z" fill="#34A853"/>
<path d="M107.666 110.829C104.363 110.842 101.147 111.886 98.4652 113.813C95.7833 115.741 93.7693 118.457 92.7037 121.584C91.6494 124.708 91.6008 128.084 92.5647 131.237C93.5286 134.391 95.4565 137.163 98.0775 139.164L105.165 132.099C103.961 131.562 102.964 130.647 102.327 129.493C101.689 128.338 101.445 127.008 101.632 125.703C101.818 124.397 102.425 123.188 103.36 122.259C104.296 121.33 105.509 120.73 106.815 120.552C108.122 120.365 109.454 120.605 110.613 121.238C111.771 121.871 112.694 122.862 113.242 124.062L120.33 117.02C118.837 115.083 116.917 113.517 114.72 112.443C112.523 111.369 110.112 110.817 107.666 110.829Z" fill="#FBBC05"/>
<defs>
<linearGradient id="paint0_linear_124_31" x1="23.4017" y1="184.75" x2="23.4017" y2="223.639" gradientUnits="userSpaceOnUse">
<stop stop-color="#327EBD"/>
<stop offset="1" stop-color="#1565A7"/>
</linearGradient>
<linearGradient id="paint1_linear_124_31" x1="36.5982" y1="198.361" x2="36.5982" y2="237.25" gradientUnits="userSpaceOnUse">
<stop stop-color="#FFDA4B"/>
<stop offset="1" stop-color="#F9C600"/>
</linearGradient>
<clipPath id="clip0_124_31">
<rect width="60" height="60" fill="white" transform="translate(90 179.934)"/>
</clipPath>
</defs>
</svg>
